<svg width="153" height="36" viewBox="0 0 153 36" fill="none" xmlns="http://www.w3.org/2000/svg">
<g clip-path="url(#clip0_1564_180)">
<path d="M44.2014 18.2438C43.4622 17.9195 42.8813 17.4593 42.4589 16.871C42.0893 16.343 41.8781 15.7471 41.8329 15.0606C41.8253 14.9173 41.946 14.7891 42.0969 14.7891H43.0699C43.6432 14.7891 44.2089 15.0833 44.4579 15.6037C44.5785 15.8451 44.737 16.0639 44.9482 16.26C45.363 16.6447 45.9438 16.8333 46.6982 16.8333C47.4525 16.8333 48.0861 16.6447 48.516 16.2675C48.9535 15.8904 49.1723 15.4076 49.1723 14.8117C49.1723 14.3516 49.0365 13.9744 48.765 13.6802C48.4934 13.3936 48.1615 13.1673 47.7542 13.0089C47.3544 12.8505 46.7962 12.677 46.0796 12.496C45.182 12.2546 44.4503 12.0208 43.8921 11.7718C43.3339 11.5305 42.8512 11.1458 42.4589 10.6328C42.0591 10.1199 41.863 9.43348 41.863 8.57356C41.863 7.78154 42.0591 7.08757 42.4589 6.49921C42.8587 5.9033 43.4094 5.45072 44.1184 5.13391C44.8275 4.8171 45.6572 4.65869 46.5926 4.65869C47.9277 4.65869 49.0139 4.99059 49.8663 5.66192C50.6432 6.27292 51.1033 7.08757 51.2466 8.11343C51.2693 8.2643 51.141 8.40007 50.9902 8.40007H49.0063C48.8781 8.40007 48.7801 8.30201 48.7499 8.18132C48.6669 7.77399 48.4406 7.41947 48.071 7.11774C47.6335 6.76322 47.0602 6.58218 46.3512 6.58218C45.7025 6.58218 45.1744 6.74813 44.7671 7.08003C44.3598 7.41192 44.1561 7.88714 44.1561 8.50567C44.1561 8.92809 44.2844 9.27507 44.5408 9.54662C44.7973 9.81817 45.1216 10.0294 45.5214 10.1878C45.9137 10.3462 46.4568 10.5197 47.1432 10.7007C48.0559 10.9496 48.7951 11.1986 49.3684 11.455C49.9417 11.7115 50.432 12.0886 50.8318 12.6091C51.2316 13.1296 51.4352 13.8236 51.4352 14.6986C51.4352 15.4001 51.2466 16.0563 50.8695 16.6749C50.4923 17.2934 49.9492 17.7912 49.2251 18.1684C48.5085 18.5455 47.6561 18.7341 46.6831 18.7341C45.7628 18.7341 44.9255 18.5757 44.1938 18.2514L44.2014 18.2438Z" fill="#290042"/>
<path d="M55.795 18.0704C54.9653 17.6027 54.309 16.9389 53.8338 16.0941C53.3586 15.2417 53.1248 14.2536 53.1248 13.1372C53.1248 12.0208 53.3661 11.0478 53.8564 10.1878C54.3467 9.32792 55.0105 8.67167 55.8554 8.21154C56.7002 7.75141 57.6431 7.51758 58.684 7.51758C59.725 7.51758 60.6679 7.75141 61.5127 8.21154C62.3575 8.67167 63.0213 9.33547 63.5116 10.1878C64.0019 11.0478 64.2433 12.0284 64.2433 13.1372C64.2433 14.246 63.9944 15.2266 63.489 16.0865C62.9911 16.9465 62.3047 17.6102 61.4373 18.0779C60.5698 18.5456 59.6194 18.7794 58.5784 18.7794C57.5375 18.7794 56.6172 18.5456 55.7875 18.0779L55.795 18.0704ZM60.2153 16.3958C60.7207 16.1167 61.1355 15.7018 61.4523 15.1512C61.7692 14.6006 61.9276 13.9217 61.9276 13.1296C61.9276 12.3376 61.7767 11.6663 61.475 11.1232C61.1733 10.5725 60.7659 10.1652 60.2681 9.88611C59.7702 9.60702 59.2271 9.47124 58.6463 9.47124C58.0655 9.47124 57.5299 9.60702 57.0321 9.88611C56.5342 10.1652 56.142 10.5725 55.8554 11.1232C55.5612 11.6738 55.4179 12.3376 55.4179 13.1296C55.4179 14.3064 55.7196 15.2115 56.3155 15.8527C56.9189 16.4939 57.6732 16.8107 58.5784 16.8107C59.1592 16.8107 59.7023 16.6749 60.2077 16.3958H60.2153Z" fill="#290042"/>
<path d="M78.8242 10.18C79.2768 9.3352 79.9029 8.67895 80.6873 8.21127C81.4718 7.7436 82.3393 7.50977 83.2897 7.50977C84.1496 7.50977 84.8964 7.67571 85.5376 8.01515C86.1787 8.35459 86.6916 8.76946 87.0688 9.27485V9.23714C87.0688 8.38477 87.7628 7.6908 88.6151 7.6908H89.0904C89.2337 7.6908 89.3468 7.80395 89.3468 7.94727V18.3341C89.3468 18.4774 89.2337 18.5906 89.0904 18.5906H87.3328C87.1895 18.5906 87.0763 18.4774 87.0763 18.3341V16.9688C86.6917 17.4817 86.1712 17.9117 85.5149 18.2587C84.8511 18.5981 84.1044 18.7716 83.2595 18.7716C82.3242 18.7716 81.4643 18.5302 80.6873 18.0475C79.9104 17.5647 79.2919 16.8934 78.8393 16.0259C78.3867 15.1585 78.1604 14.1854 78.1604 13.0841C78.1604 11.9828 78.3867 11.0173 78.8393 10.1725L78.8242 10.18ZM86.6011 11.1682C86.2919 10.6175 85.8845 10.1951 85.3867 9.90093C84.8889 9.61429 84.3457 9.46343 83.7649 9.46343C83.1841 9.46343 82.641 9.60675 82.1432 9.88584C81.6453 10.1725 81.238 10.5874 80.9287 11.1305C80.6195 11.6811 80.461 12.3298 80.461 13.0766C80.461 13.8233 80.6195 14.4871 80.9287 15.0529C81.238 15.6186 81.6453 16.0561 82.1582 16.3503C82.6636 16.6445 83.2067 16.7953 83.7725 16.7953C84.3382 16.7953 84.8964 16.652 85.3942 16.3578C85.8921 16.0712 86.2994 15.6412 86.6087 15.083C86.9179 14.5249 87.0763 13.8686 87.0763 13.1143C87.0763 12.36 86.9179 11.7113 86.6087 11.1531L86.6011 11.1682Z" fill="#290042"/>
<path d="M96.0301 7.97771C96.5128 7.70616 97.071 7.55529 97.7122 7.51758C97.8555 7.51758 97.9837 7.63072 97.9837 7.77404V9.84085H97.4105C96.5279 9.84085 95.8566 10.0671 95.404 10.5122C94.9514 10.9572 94.7251 11.7417 94.7251 12.8506V18.3344C94.7251 18.4777 94.612 18.5909 94.4687 18.5909H92.7262C92.5829 18.5909 92.4697 18.4777 92.4697 18.3344V7.94754C92.4697 7.80422 92.5829 7.69107 92.7262 7.69107H93.1788C94.0312 7.69107 94.7251 8.38504 94.7251 9.23741V9.27512C95.057 8.72448 95.4945 8.28698 96.0376 7.97771H96.0301Z" fill="#290042"/>
<path d="M75.5657 9.62938C75.181 8.92787 74.653 8.39985 73.9741 8.04533C73.2952 7.6908 72.5258 7.50977 71.6659 7.50977C71.5905 7.50977 71.5151 7.50977 71.4396 7.51731C71.4321 7.51731 71.4245 7.51731 71.417 7.51731C71.3793 7.51731 71.3491 7.52485 71.3114 7.52485C71.2209 7.52485 71.1379 7.53994 71.0549 7.54748C70.9946 7.55502 70.9267 7.56257 70.8663 7.57765C70.7607 7.60028 70.6551 7.61537 70.5495 7.64554C70.5345 7.64554 70.5118 7.65308 70.4967 7.66063C70.2252 7.73606 69.9687 7.84166 69.7349 7.96989C69.1842 8.27916 68.7467 8.70912 68.4224 9.26731V9.22959C68.4224 8.37722 67.7284 7.68326 66.876 7.68326H66.4235C66.2801 7.68326 66.167 7.7964 66.167 7.93972V18.3266C66.167 18.4699 66.2801 18.583 66.4235 18.583H68.1659C68.3092 18.583 68.4224 18.4699 68.4224 18.3266V12.8427C68.4224 12.8427 68.4224 12.8201 68.4224 12.8126V12.4882C68.4224 11.5152 68.6713 10.7608 69.1616 10.2404C69.6595 9.71989 70.3232 9.45589 71.1681 9.45589C72.0129 9.45589 72.6767 9.71989 73.167 10.2404C73.6573 10.7608 73.8987 11.5076 73.8987 12.4882V18.3266C73.8987 18.4699 74.0118 18.583 74.1551 18.583H75.875C76.0183 18.583 76.1314 18.4699 76.1314 18.3266V12.1488C76.1314 11.1606 75.9429 10.3158 75.5582 9.61429L75.5657 9.62938Z" fill="#290042"/>
<path d="M111.192 20.9068L108.944 18.4704C108.348 18.6439 107.699 18.7268 106.983 18.7268C105.7 18.7268 104.524 18.4251 103.452 17.8292C102.374 17.2258 101.529 16.3885 100.903 15.3174C100.277 14.2387 99.96 13.0318 99.96 11.6891C99.96 10.3465 100.277 9.13956 100.903 8.06844C101.529 6.99732 102.381 6.16758 103.452 5.56413C104.531 4.96068 105.708 4.6665 106.983 4.6665C108.257 4.6665 109.457 4.96823 110.535 5.56413C111.614 6.16758 112.459 6.99732 113.077 8.06844C113.696 9.13956 114.005 10.3465 114.005 11.6891C114.005 12.9564 113.734 14.1029 113.183 15.1212C112.632 16.1471 111.878 16.9618 110.92 17.5878L111.84 18.5986C112.444 19.2549 112.361 20.2883 111.667 20.8465L111.546 20.9445C111.441 21.0275 111.29 21.02 111.199 20.9219L111.192 20.9068ZM102.872 14.3669C103.271 15.1363 103.83 15.7322 104.546 16.1471C105.255 16.562 106.07 16.7732 106.983 16.7732C107.895 16.7732 108.702 16.562 109.419 16.1471C110.136 15.7322 110.686 15.1363 111.094 14.3669C111.493 13.5975 111.697 12.6999 111.697 11.6891C111.697 10.6784 111.493 9.78073 111.094 9.01888C110.694 8.25702 110.136 7.66866 109.419 7.25379C108.71 6.84646 107.895 6.6428 106.983 6.6428C106.07 6.6428 105.263 6.84646 104.546 7.25379C103.837 7.66112 103.279 8.24948 102.872 9.01888C102.464 9.78827 102.268 10.6708 102.268 11.6891C102.268 12.7075 102.472 13.5975 102.872 14.3669Z" fill="#126ED3"/>
<path d="M126.248 9.22944V18.334C126.248 18.4773 126.134 18.5904 125.991 18.5904H124.249C124.105 18.5904 123.992 18.4773 123.992 18.334V17.3081C123.638 17.7531 123.17 18.1077 122.597 18.3641C122.023 18.6206 121.412 18.7488 120.764 18.7488C119.904 18.7488 119.142 18.5678 118.456 18.2133C117.777 17.8588 117.241 17.3307 116.849 16.6292C116.457 15.9277 116.268 15.0829 116.268 14.0947V7.93957C116.268 7.79625 116.381 7.68311 116.525 7.68311H116.962C117.814 7.68311 118.508 8.37707 118.508 9.22944V13.7628C118.508 14.7359 118.75 15.4902 119.24 16.0107C119.73 16.5312 120.394 16.7952 121.239 16.7952C122.084 16.7952 122.755 16.5312 123.245 16.0107C123.743 15.4902 123.985 14.7434 123.985 13.7628V7.94711C123.985 7.8038 124.098 7.69065 124.241 7.69065H124.694C125.546 7.69065 126.24 8.38461 126.24 9.23698L126.248 9.22944Z" fill="#126ED3"/>
<path d="M132.614 8.01544C133.278 7.676 134.025 7.51005 134.839 7.51005C135.805 7.51005 136.672 7.74389 137.449 8.20402C138.226 8.66415 138.845 9.3204 139.29 10.1728C139.735 11.0251 139.961 11.9982 139.961 13.0919C139.961 14.1857 139.735 15.1663 139.29 16.0338C138.845 16.9012 138.226 17.5726 137.442 18.0553C136.657 18.5381 135.79 18.7794 134.839 18.7794C133.995 18.7794 133.248 18.6135 132.591 18.2816C131.935 17.9497 131.422 17.5273 131.038 17.0144V18.3419C131.038 18.4853 130.924 18.5984 130.781 18.5984H129.039C128.895 18.5984 128.782 18.4853 128.782 18.3419V4.20617C128.782 4.06285 128.895 3.94971 129.039 3.94971H129.491C130.344 3.94971 131.038 4.64367 131.038 5.49604V9.31285C131.422 8.78484 131.943 8.35488 132.614 8.01544ZM137.2 11.1383C136.891 10.5876 136.484 10.1728 135.971 9.89367C135.465 9.60703 134.915 9.47126 134.334 9.47126C133.753 9.47126 133.233 9.61458 132.72 9.90876C132.214 10.2029 131.799 10.6178 131.49 11.176C131.181 11.7266 131.023 12.3829 131.023 13.1372C131.023 13.8915 131.181 14.5478 131.49 15.106C131.799 15.6641 132.207 16.0941 132.72 16.3807C133.225 16.6749 133.768 16.8182 134.334 16.8182C134.9 16.8182 135.458 16.6674 135.971 16.3732C136.476 16.079 136.891 15.6415 137.2 15.0758C137.51 14.5101 137.668 13.8463 137.668 13.0995C137.668 12.3527 137.51 11.6965 137.2 11.1534V11.1383Z" fill="#126ED3"/>
<path d="M152.022 13.982H143.921C143.989 14.8495 144.313 15.551 144.894 16.079C145.475 16.607 146.184 16.871 147.029 16.871C148.191 16.871 149.02 16.4109 149.533 15.4831C149.578 15.4001 149.661 15.3473 149.752 15.3473H152.038C151.706 16.3506 151.11 17.1728 150.25 17.8139C149.39 18.4551 148.311 18.7719 147.036 18.7719C145.996 18.7719 145.06 18.5381 144.238 18.0704C143.416 17.6027 142.767 16.9389 142.299 16.0941C141.832 15.2493 141.598 14.2536 141.598 13.1372C141.598 12.0208 141.824 11.0327 142.277 10.1803C142.729 9.32792 143.371 8.67167 144.2 8.21154C145.022 7.75141 145.973 7.51758 147.036 7.51758C148.1 7.51758 148.983 7.74387 149.79 8.18891C150.597 8.63396 151.223 9.26758 151.668 10.0822C152.113 10.8969 152.339 11.8247 152.339 12.8807C152.339 13.1975 152.324 13.4993 152.294 13.7633C152.279 13.8915 152.166 13.982 152.038 13.982H152.022ZM149.971 12.1566C149.956 11.3268 149.661 10.6631 149.081 10.1577C148.5 9.65982 147.783 9.40335 146.923 9.40335C146.146 9.40335 145.483 9.65228 144.924 10.1426C144.374 10.6404 144.042 11.3042 143.936 12.149H149.971V12.1566Z" fill="#126ED3"/>
<path d="M43.809 31.8742C43.364 31.6856 43.017 31.4141 42.7605 31.0746C42.5041 30.7352 42.3608 30.3429 42.3381 29.8979H43.5903C43.628 30.26 43.794 30.5617 44.1032 30.788C44.4125 31.0218 44.8123 31.135 45.3101 31.135C45.7702 31.135 46.1323 31.0369 46.4039 30.8257C46.6754 30.6145 46.8037 30.3656 46.8037 30.0563C46.8037 29.747 46.6603 29.4981 46.3812 29.3473C46.1021 29.1964 45.6571 29.038 45.0612 28.8871C44.5181 28.7438 44.0806 28.6005 43.7412 28.4572C43.4017 28.3138 43.1075 28.0951 42.8662 27.8085C42.6248 27.5218 42.4965 27.1447 42.4965 26.6694C42.4965 26.2998 42.6097 25.9529 42.8284 25.6436C43.0472 25.3343 43.364 25.0854 43.7713 24.9044C44.1787 24.7233 44.6463 24.6328 45.1668 24.6328C45.9739 24.6328 46.6226 24.8365 47.1205 25.2438C47.6183 25.6511 47.8823 26.2093 47.92 26.9184H46.7131C46.683 26.5337 46.5321 26.232 46.253 25.9981C45.9739 25.7643 45.5968 25.6511 45.1291 25.6511C44.6916 25.6511 44.3521 25.7416 44.0881 25.9302C43.8317 26.1188 43.7034 26.3602 43.7034 26.6619C43.7034 26.9033 43.7789 27.0994 43.9373 27.2503C44.0957 27.4087 44.2843 27.5294 44.5256 27.6199C44.7595 27.7104 45.0838 27.816 45.5062 27.9367C46.0267 28.08 46.4567 28.2158 46.781 28.3516C47.1054 28.4873 47.392 28.6985 47.6258 28.9701C47.8597 29.2492 47.9804 29.6037 47.9879 30.0488C47.9879 30.4485 47.8748 30.8031 47.656 31.1274C47.4373 31.4442 47.1205 31.7007 46.7207 31.8817C46.3133 32.0628 45.8532 32.1533 45.3327 32.1533C44.7746 32.1533 44.2692 32.0552 43.8317 31.8666L43.809 31.8742Z" fill="#126ED3"/>
<path d="M56.4212 28.8494H50.5979C50.6432 29.566 50.8846 30.1317 51.3372 30.5315C51.7897 30.9313 52.3253 31.1349 52.9665 31.1349C53.4869 31.1349 53.9244 31.0142 54.279 30.7653C54.626 30.5239 54.8749 30.1996 55.0182 29.7847H56.3232C56.127 30.4862 55.7348 31.0519 55.154 31.497C54.5656 31.9345 53.8415 32.1532 52.974 32.1532C52.28 32.1532 51.6615 31.9948 51.1184 31.6856C50.5753 31.3763 50.1453 30.9313 49.8361 30.3655C49.5268 29.7922 49.3684 29.1285 49.3684 28.3741C49.3684 27.6198 49.5193 26.956 49.821 26.3903C50.1227 25.8246 50.5451 25.3871 51.0882 25.0778C51.6313 24.7685 52.2574 24.6177 52.974 24.6177C53.6906 24.6177 54.279 24.7685 54.807 25.0703C55.3425 25.372 55.7499 25.7869 56.0365 26.3149C56.3231 26.8429 56.4665 27.4388 56.4665 28.1026C56.4665 28.3364 56.4514 28.5778 56.4288 28.8343L56.4212 28.8494ZM54.905 26.6694C54.7014 26.3375 54.4223 26.081 54.0753 25.9075C53.7283 25.7341 53.3361 25.6511 52.9137 25.6511C52.3027 25.6511 51.7822 25.8472 51.3522 26.2394C50.9223 26.6317 50.6734 27.1672 50.613 27.8612H55.2143C55.2143 27.4011 55.1087 27.0013 54.905 26.6694Z" fill="#126ED3"/>
<path d="M60.3135 24.9647C60.7057 24.7308 61.1885 24.6177 61.7542 24.6177V25.8698H61.4374C60.0796 25.8698 59.4007 26.6091 59.4007 28.08V32.0476H58.1938V24.7535H59.4007V25.9377C59.612 25.5228 59.9137 25.1985 60.3135 24.9647Z" fill="#126ED3"/>
<path d="M66.3628 30.9237L68.6257 24.7534H69.9156L67.0567 32.0476H65.6462L62.7874 24.7534H64.0923L66.3703 30.9237H66.3628Z" fill="#126ED3"/>
<path d="M77.8509 28.8494H72.0276C72.0729 29.566 72.3143 30.1317 72.7668 30.5315C73.2194 30.9313 73.755 31.1349 74.3962 31.1349C74.9166 31.1349 75.3541 31.0142 75.7087 30.7653C76.0556 30.5239 76.3046 30.1996 76.4479 29.7847H77.7528C77.5567 30.4862 77.1645 31.0519 76.5837 31.497C75.9953 31.9345 75.2712 32.1532 74.4037 32.1532C73.7097 32.1532 73.0912 31.9948 72.5481 31.6856C72.005 31.3763 71.575 30.9313 71.2658 30.3655C70.9565 29.7922 70.7981 29.1285 70.7981 28.3741C70.7981 27.6198 70.949 26.956 71.2507 26.3903C71.5524 25.8246 71.9748 25.3871 72.5179 25.0778C73.061 24.7685 73.6871 24.6177 74.4037 24.6177C75.1203 24.6177 75.7087 24.7685 76.2367 25.0703C76.7722 25.372 77.1796 25.7869 77.4662 26.3149C77.7528 26.8429 77.8962 27.4388 77.8962 28.1026C77.8962 28.3364 77.8811 28.5778 77.8584 28.8343L77.8509 28.8494ZM76.3347 26.6694C76.1311 26.3375 75.852 26.081 75.505 25.9075C75.158 25.7341 74.7658 25.6511 74.3434 25.6511C73.7324 25.6511 73.2119 25.8472 72.7819 26.2394C72.352 26.6317 72.1031 27.1672 72.0427 27.8612H76.644C76.644 27.4011 76.5384 27.0013 76.3347 26.6694Z" fill="#126ED3"/>
<path d="M81.7431 24.9647C82.1354 24.7308 82.6181 24.6177 83.1839 24.6177V25.8698H82.8671C81.5093 25.8698 80.8304 26.6091 80.8304 28.08V32.0476H79.6235V24.7535H80.8304V25.9377C81.0416 25.5228 81.3434 25.1985 81.7431 24.9647Z" fill="#126ED3"/>
<path d="M34.3123 19.1866C33.6862 19.1866 33.1808 18.6813 33.1808 18.0552C33.1808 9.65216 26.3467 2.81811 17.9437 2.81811C17.3176 2.81811 16.8123 2.31272 16.8123 1.68664C16.8123 1.06056 17.3176 0.555176 17.9437 0.555176C27.5914 0.555176 35.4437 8.40755 35.4437 18.0552C35.4437 18.6813 34.9383 19.1866 34.3123 19.1866Z" fill="#126ED3"/>
<path d="M17.9438 35.5548C8.29622 35.5548 0.443848 27.7024 0.443848 18.0548C0.443848 17.4287 0.949236 16.9233 1.57531 16.9233C2.20139 16.9233 2.70678 17.4287 2.70678 18.0548C2.70678 26.4578 9.54083 33.2919 17.9438 33.2919C18.5699 33.2919 19.0753 33.7973 19.0753 34.4233C19.0753 35.0494 18.5699 35.5548 17.9438 35.5548Z" fill="#126ED3"/>
<path d="M22.8543 19.1867C22.2282 19.1867 21.7228 18.6813 21.7228 18.0552C21.7228 15.9733 20.0256 14.2761 17.9437 14.2761C17.3176 14.2761 16.8123 13.7707 16.8123 13.1446C16.8123 12.5186 17.3176 12.0132 17.9437 12.0132C21.2778 12.0132 23.9857 14.7212 23.9857 18.0552C23.9857 18.6813 23.4804 19.1867 22.8543 19.1867Z" fill="#126ED3"/>
<path d="M17.9436 24.0968C14.6096 24.0968 11.9016 21.3889 11.9016 18.0548C11.9016 17.4287 12.407 16.9233 13.0331 16.9233C13.6592 16.9233 14.1645 17.4287 14.1645 18.0548C14.1645 20.1367 15.8617 21.8339 17.9436 21.8339C18.5697 21.8339 19.0751 22.3393 19.0751 22.9654C19.0751 23.5914 18.5697 24.0968 17.9436 24.0968Z" fill="#126ED3"/>
<path d="M28.5795 19.1863C27.9534 19.1863 27.448 18.6809 27.448 18.0548C27.448 12.8124 23.1862 8.55053 17.9437 8.55053C17.3176 8.55053 16.8123 8.04514 16.8123 7.41906C16.8123 6.79299 17.3176 6.2876 17.9437 6.2876C24.4308 6.2876 29.711 11.5678 29.711 18.0548C29.711 18.6809 29.2056 19.1863 28.5795 19.1863Z" fill="#126ED3"/>
<path d="M17.9438 29.822C11.4567 29.822 6.17651 24.5419 6.17651 18.0548C6.17651 17.4287 6.6819 16.9233 7.30798 16.9233C7.93406 16.9233 8.43944 17.4287 8.43944 18.0548C8.43944 23.2973 12.7013 27.5591 17.9438 27.5591C18.5698 27.5591 19.0752 28.0645 19.0752 28.6906C19.0752 29.3167 18.5698 29.822 17.9438 29.822Z" fill="#126ED3"/>
</g>
<defs>
<clipPath id="clip0_1564_180">
<rect width="151.88" height="35" fill="white" transform="translate(0.443848 0.555176)"/>
</clipPath>
</defs>
</svg>
